<mxfile host="65bd71144e">
    <diagram id="a2qCymA8xY7LjtpiCSF-" name="PÃ¡gina-1">
        <mxGraphModel dx="822" dy="361" grid="1" gridSize="10" guides="1" tooltips="1" connect="1" arrows="1" fold="1" page="1" pageScale="1" pageWidth="1169" pageHeight="827" math="0" shadow="0">
            <root>
                <mxCell id="0"/>
                <mxCell id="1" parent="0"/>
                <mxCell id="2" value="Customer" style="swimlane;fontStyle=0;childLayout=stackLayout;horizontal=1;startSize=26;fillColor=none;horizontalStack=0;resizeParent=1;resizeParentMax=0;resizeLast=0;collapsible=1;marginBottom=0;" parent="1" vertex="1">
                    <mxGeometry x="40" y="40" width="140" height="156" as="geometry"/>
                </mxCell>
                <mxCell id="3" value="_id: ObjectId" style="text;strokeColor=none;fillColor=none;align=left;verticalAlign=top;spacingLeft=4;spacingRight=4;overflow=hidden;rotatable=0;points=[[0,0.5],[1,0.5]];portConstraint=eastwest;" parent="2" vertex="1">
                    <mxGeometry y="26" width="140" height="26" as="geometry"/>
                </mxCell>
                <mxCell id="4" value="name: String" style="text;strokeColor=none;fillColor=none;align=left;verticalAlign=top;spacingLeft=4;spacingRight=4;overflow=hidden;rotatable=0;points=[[0,0.5],[1,0.5]];portConstraint=eastwest;" parent="2" vertex="1">
                    <mxGeometry y="52" width="140" height="26" as="geometry"/>
                </mxCell>
                <mxCell id="5" value="phone: String" style="text;strokeColor=none;fillColor=none;align=left;verticalAlign=top;spacingLeft=4;spacingRight=4;overflow=hidden;rotatable=0;points=[[0,0.5],[1,0.5]];portConstraint=eastwest;" parent="2" vertex="1">
                    <mxGeometry y="78" width="140" height="26" as="geometry"/>
                </mxCell>
                <mxCell id="6" value="id_document: String" style="text;strokeColor=none;fillColor=none;align=left;verticalAlign=top;spacingLeft=4;spacingRight=4;overflow=hidden;rotatable=0;points=[[0,0.5],[1,0.5]];portConstraint=eastwest;" parent="2" vertex="1">
                    <mxGeometry y="104" width="140" height="26" as="geometry"/>
                </mxCell>
                <mxCell id="7" value="address: String" style="text;strokeColor=none;fillColor=none;align=left;verticalAlign=top;spacingLeft=4;spacingRight=4;overflow=hidden;rotatable=0;points=[[0,0.5],[1,0.5]];portConstraint=eastwest;" parent="2" vertex="1">
                    <mxGeometry y="130" width="140" height="26" as="geometry"/>
                </mxCell>
                <mxCell id="12" value="Sale" style="swimlane;fontStyle=0;childLayout=stackLayout;horizontal=1;startSize=26;fillColor=none;horizontalStack=0;resizeParent=1;resizeParentMax=0;resizeLast=0;collapsible=1;marginBottom=0;" parent="1" vertex="1">
                    <mxGeometry x="320" y="40" width="140" height="130" as="geometry"/>
                </mxCell>
                <mxCell id="13" value="_id: ObjectId" style="text;strokeColor=none;fillColor=none;align=left;verticalAlign=top;spacingLeft=4;spacingRight=4;overflow=hidden;rotatable=0;points=[[0,0.5],[1,0.5]];portConstraint=eastwest;" parent="12" vertex="1">
                    <mxGeometry y="26" width="140" height="26" as="geometry"/>
                </mxCell>
                <mxCell id="14" value="datetime: DateTime" style="text;strokeColor=none;fillColor=none;align=left;verticalAlign=top;spacingLeft=4;spacingRight=4;overflow=hidden;rotatable=0;points=[[0,0.5],[1,0.5]];portConstraint=eastwest;" parent="12" vertex="1">
                    <mxGeometry y="52" width="140" height="26" as="geometry"/>
                </mxCell>
                <mxCell id="15" value="number: Number" style="text;strokeColor=none;fillColor=none;align=left;verticalAlign=top;spacingLeft=4;spacingRight=4;overflow=hidden;rotatable=0;points=[[0,0.5],[1,0.5]];portConstraint=eastwest;" parent="12" vertex="1">
                    <mxGeometry y="78" width="140" height="26" as="geometry"/>
                </mxCell>
                <mxCell id="40" value="customer_id: ObjectId" style="text;strokeColor=none;fillColor=none;align=left;verticalAlign=top;spacingLeft=4;spacingRight=4;overflow=hidden;rotatable=0;points=[[0,0.5],[1,0.5]];portConstraint=eastwest;" vertex="1" parent="12">
                    <mxGeometry y="104" width="140" height="26" as="geometry"/>
                </mxCell>
                <mxCell id="16" value="n" style="endArrow=open;html=1;endSize=12;startArrow=diamondThin;startSize=14;startFill=1;edgeStyle=orthogonalEdgeStyle;align=left;verticalAlign=bottom;entryX=0.995;entryY=0.102;entryDx=0;entryDy=0;entryPerimeter=0;" parent="1" target="2" edge="1">
                    <mxGeometry x="-0.7561" y="-3" relative="1" as="geometry">
                        <mxPoint x="320" y="56" as="sourcePoint"/>
                        <mxPoint x="210" y="170" as="targetPoint"/>
                        <mxPoint as="offset"/>
                    </mxGeometry>
                </mxCell>
                <mxCell id="18" value="Product" style="swimlane;fontStyle=0;childLayout=stackLayout;horizontal=1;startSize=26;fillColor=none;horizontalStack=0;resizeParent=1;resizeParentMax=0;resizeLast=0;collapsible=1;marginBottom=0;" parent="1" vertex="1">
                    <mxGeometry x="600" y="240" width="140" height="156" as="geometry"/>
                </mxCell>
                <mxCell id="19" value="_id: ObjectId" style="text;strokeColor=none;fillColor=none;align=left;verticalAlign=top;spacingLeft=4;spacingRight=4;overflow=hidden;rotatable=0;points=[[0,0.5],[1,0.5]];portConstraint=eastwest;" parent="18" vertex="1">
                    <mxGeometry y="26" width="140" height="26" as="geometry"/>
                </mxCell>
                <mxCell id="20" value="description: String" style="text;strokeColor=none;fillColor=none;align=left;verticalAlign=top;spacingLeft=4;spacingRight=4;overflow=hidden;rotatable=0;points=[[0,0.5],[1,0.5]];portConstraint=eastwest;" parent="18" vertex="1">
                    <mxGeometry y="52" width="140" height="26" as="geometry"/>
                </mxCell>
                <mxCell id="21" value="unit: String" style="text;strokeColor=none;fillColor=none;align=left;verticalAlign=top;spacingLeft=4;spacingRight=4;overflow=hidden;rotatable=0;points=[[0,0.5],[1,0.5]];portConstraint=eastwest;" parent="18" vertex="1">
                    <mxGeometry y="78" width="140" height="26" as="geometry"/>
                </mxCell>
                <mxCell id="22" value="price: Number" style="text;strokeColor=none;fillColor=none;align=left;verticalAlign=top;spacingLeft=4;spacingRight=4;overflow=hidden;rotatable=0;points=[[0,0.5],[1,0.5]];portConstraint=eastwest;" parent="18" vertex="1">
                    <mxGeometry y="104" width="140" height="26" as="geometry"/>
                </mxCell>
                <mxCell id="42" value="supplier_id: ObjectId" style="text;strokeColor=none;fillColor=none;align=left;verticalAlign=top;spacingLeft=4;spacingRight=4;overflow=hidden;rotatable=0;points=[[0,0.5],[1,0.5]];portConstraint=eastwest;" vertex="1" parent="18">
                    <mxGeometry y="130" width="140" height="26" as="geometry"/>
                </mxCell>
                <mxCell id="23" value="SaleItem" style="swimlane;fontStyle=0;childLayout=stackLayout;horizontal=1;startSize=26;fillColor=none;horizontalStack=0;resizeParent=1;resizeParentMax=0;resizeLast=0;collapsible=1;marginBottom=0;" parent="1" vertex="1">
                    <mxGeometry x="320" y="240" width="140" height="104" as="geometry"/>
                </mxCell>
                <mxCell id="25" value="order: Number" style="text;strokeColor=none;fillColor=none;align=left;verticalAlign=top;spacingLeft=4;spacingRight=4;overflow=hidden;rotatable=0;points=[[0,0.5],[1,0.5]];portConstraint=eastwest;" parent="23" vertex="1">
                    <mxGeometry y="26" width="140" height="26" as="geometry"/>
                </mxCell>
                <mxCell id="26" value="quantity: Number" style="text;strokeColor=none;fillColor=none;align=left;verticalAlign=top;spacingLeft=4;spacingRight=4;overflow=hidden;rotatable=0;points=[[0,0.5],[1,0.5]];portConstraint=eastwest;" parent="23" vertex="1">
                    <mxGeometry y="52" width="140" height="26" as="geometry"/>
                </mxCell>
                <mxCell id="41" value="product_id: ObjectId" style="text;strokeColor=none;fillColor=none;align=left;verticalAlign=top;spacingLeft=4;spacingRight=4;overflow=hidden;rotatable=0;points=[[0,0.5],[1,0.5]];portConstraint=eastwest;" vertex="1" parent="23">
                    <mxGeometry y="78" width="140" height="26" as="geometry"/>
                </mxCell>
                <mxCell id="27" value="n" style="endArrow=open;html=1;endSize=12;startArrow=diamondThin;startSize=14;startFill=1;align=left;verticalAlign=bottom;exitX=0.5;exitY=0;exitDx=0;exitDy=0;" parent="1" source="23" edge="1">
                    <mxGeometry x="-1" y="-10" relative="1" as="geometry">
                        <mxPoint x="270" y="200" as="sourcePoint"/>
                        <mxPoint x="390" y="170" as="targetPoint"/>
                        <mxPoint as="offset"/>
                    </mxGeometry>
                </mxCell>
                <mxCell id="28" value="n" style="endArrow=open;html=1;endSize=12;startArrow=diamondThin;startSize=14;startFill=1;edgeStyle=orthogonalEdgeStyle;align=left;verticalAlign=bottom;" parent="1" edge="1">
                    <mxGeometry x="-0.925" y="5" relative="1" as="geometry">
                        <mxPoint x="460" y="260" as="sourcePoint"/>
                        <mxPoint x="600" y="260" as="targetPoint"/>
                        <mxPoint as="offset"/>
                    </mxGeometry>
                </mxCell>
                <mxCell id="29" value="Supplier" style="swimlane;fontStyle=0;childLayout=stackLayout;horizontal=1;startSize=26;fillColor=none;horizontalStack=0;resizeParent=1;resizeParentMax=0;resizeLast=0;collapsible=1;marginBottom=0;" parent="1" vertex="1">
                    <mxGeometry x="600" y="40" width="140" height="156" as="geometry"/>
                </mxCell>
                <mxCell id="30" value="_id: ObjectId" style="text;strokeColor=none;fillColor=none;align=left;verticalAlign=top;spacingLeft=4;spacingRight=4;overflow=hidden;rotatable=0;points=[[0,0.5],[1,0.5]];portConstraint=eastwest;" parent="29" vertex="1">
                    <mxGeometry y="26" width="140" height="26" as="geometry"/>
                </mxCell>
                <mxCell id="31" value="name: String" style="text;strokeColor=none;fillColor=none;align=left;verticalAlign=top;spacingLeft=4;spacingRight=4;overflow=hidden;rotatable=0;points=[[0,0.5],[1,0.5]];portConstraint=eastwest;" parent="29" vertex="1">
                    <mxGeometry y="52" width="140" height="26" as="geometry"/>
                </mxCell>
                <mxCell id="32" value="address: String&#10;" style="text;strokeColor=none;fillColor=none;align=left;verticalAlign=top;spacingLeft=4;spacingRight=4;overflow=hidden;rotatable=0;points=[[0,0.5],[1,0.5]];portConstraint=eastwest;" parent="29" vertex="1">
                    <mxGeometry y="78" width="140" height="26" as="geometry"/>
                </mxCell>
                <mxCell id="33" value="phone: String" style="text;strokeColor=none;fillColor=none;align=left;verticalAlign=top;spacingLeft=4;spacingRight=4;overflow=hidden;rotatable=0;points=[[0,0.5],[1,0.5]];portConstraint=eastwest;" parent="29" vertex="1">
                    <mxGeometry y="104" width="140" height="26" as="geometry"/>
                </mxCell>
                <mxCell id="34" value="country: String" style="text;strokeColor=none;fillColor=none;align=left;verticalAlign=top;spacingLeft=4;spacingRight=4;overflow=hidden;rotatable=0;points=[[0,0.5],[1,0.5]];portConstraint=eastwest;" parent="29" vertex="1">
                    <mxGeometry y="130" width="140" height="26" as="geometry"/>
                </mxCell>
                <mxCell id="35" value="n" style="endArrow=open;html=1;endSize=12;startArrow=diamondThin;startSize=14;startFill=1;align=left;verticalAlign=bottom;exitX=0.5;exitY=0;exitDx=0;exitDy=0;" parent="1" source="18" target="34" edge="1">
                    <mxGeometry x="-1" y="-5" relative="1" as="geometry">
                        <mxPoint x="660" y="220" as="sourcePoint"/>
                        <mxPoint x="670" y="200" as="targetPoint"/>
                        <mxPoint as="offset"/>
                    </mxGeometry>
                </mxCell>
                <mxCell id="39" value="" style="shape=stencil(lZ3Z0htHcoWfhreI2pfrsec9FCFqpBhZVFAcL2/vKsvAD5zT+Eq8E6lMsLs6K5eT26f8tz9+/uH3z59S+OPb1y///Pxfv/z47edP+d8+pfTLbz9//vrLt/Vfn/K/f8p/++nL18//+PrlX7/9+Oeff/9hU+7/+o8v/7l/4b//5IvzluvmSuF//vybcGvl//7i73/S//rLb8/04zam0M+E9Dm80MdbbkDfb7MKPT5Pv9Uk9P//A+/o4+vzpFvqQN9urQl9o/dttziEfk6gr7eWX+jzLQ+kD13oOz1/udXX3y+3SOeT74/7QV/pffOtFKGfGejTbbyeT70L4Dv6NIW+0/nEW48v9O2WItKnJPSNnj/c+qt89lug5w+3HIW+gDzM21RyOs55q6+nP/A0pwrnQOEZ+jCLH8lFlOetBSLPcnPDLYBqGLeQlZ5Es+uXWt86wPN0leRFX+B5uh7mop+gqtptiiZMtwIfawliVPoJx99Uk++7CVelqSbcdx9+v97Gq+ZZuoXOp9rzL9WA9FnOs+L51FssSk93pZhlaWiKyq0npR/4+1Xet9911xt6lf8lsSA/S3EL/cDrmO/S+ERf4XmWIXm1dMs3CKA6s33feStIX6rSD7i/yxC+3vflaiS4v1k1+aKveD4xKj3d33w/jQf9cmWAPt0doyd60rbLMr5+r+2agLylu7Q80ZP8LMfl9fz3iYH8p1ttSk/fK6n+XBJLpi6pZ7hudIL7nu6Oy4O+3QK5VurJbA1MrsP96zzoO+qreKvyPOPw+/n1fDLbu3iL4hk+/uaSPty134M+3TXkG3p537wkHJ7/ERg80ZPrH9Q3yeUuge/oX+UhL3nA53H6ge8r+jm3uwZ+R5+Unu5v0PuSHx7Cu/NMSk/6atG/ynNeHhE+fx9KT/cxaGS36DF0uf/rD/p5P+F38vwqbyWw66z6f9FXvF/l9X1LvFvMN/RivxZ9w/so/kBZ9wvpRZ8v+kahmt7fkvH+JrVH5WGR39HL+RfUn0n9jUVf0V7EV/kvK1bF5xd7vegr2rsk37ehf5LUH170Be1vSUpP+j/db9ODvqM/bPa0cGyXNJwq425h3/kDQenJnzH/ocyDve4SiQe0F8ufiUrf0b6P1/Op8fC9xL+qD4l6Ry/IQ8Z4MN+l94m+w/c1f7Ky/7Po5Tzryb81+oH+bRb6dreYb+jFntaO+sH8/0VP+m2d3qs813FL6G+PqvQcL+j3nXhfisa/jeW53L/OE32H5ylqvxrHC0X950VP8Xi5ewsP+oTxXdHzbxnPv2i8v+gn6Nuq/kBje1EVP2kVobpq58nyX+/a40HfEC8yvKJ1tO9V4+VFT/JZVV+1ccBnwuv9bROh26b2cdETXtHUX+qMpzVDPiPGjw9g9EH/8EDe0Iu+WvRkH7v6tz3j+w71P3u5W8w39FV+v6J/PlX+e0N/YNr59wN4K/hVH3cL8g56FoemHwLUYODzRA23AdJXlTjC/SO+Y5B/YUSOgQ1UWAz00eLDpj8Y0l1vvGOQMH4xYAapKA4xHj/xjkEcp1EwMPzAPZ8YBkVWpioGQ6eLQbIko3Es1hWsXAwUzO88njB09M42OBmUgdzFjU6+2oMxED+KUwGAxdBIWqdGZGNyxGTJnsVA32HH6MYwiCFqEDcDg4R2RRcDeQk7zM3KgGFE0u8wI6ZUk6X0FgMlinbkVJRhMoPcuJlQVW7fuioDpQG38/uqvGdG45ZMa0zOzmx3zRjI/dr+lHzpwvhB1QB2MVBCZHswTRnww5mLsRgIots+g4h35RizKygzOZ+chhqUWRk1mXcn+YmBhC8/oogHQ0N1n83sLgYKXHLUyH0xkCLLSV2ZxUDQbV6yKXe6oyzlYheoI7iaq5qsxUDoYa6aPl0MjY612Sl11K2534X5wTA4ATbsAh0yctOU8eCQMNwv5BMDnVKJFwwUlJd0wYBZznzBQF5lKYrDzXnXVNcMVRMli4FsXGkaGS4GPNaudnoeoIKhsdVioFipTLsPE81ufZjxJwayQDWaFZ34pWu6Z2efGeDD1ayA5WaggLjc499nBjil2jTFtU+JUv5dY/r94eilh4JIc6J9aEFRnoPwNUs7LAYyWc1w132B6F/IZnbH3b+5ZqiK3G8lAN+hNRO+gaFr63YfBtY6tHF3CZ9VJSiBNjU7vLQ3uT89aISyGChS7JaPnVya1ZMWqCwGCjh6thvX0aD0YrLUMAbaiIR5AmQfetOk42LAd+jm6FbMCvZh4l3vQc41w7SAo969j2tcJlw8EgFjIypSOgsihyOZnS6ol0a+I5fPvjec0groBSxa3v0gMKoo2rUYMr1D1cLPmdDnWwG9GsWE9TwrPldHN95TOO8YJMMzI2qN4RWFAU3WmHanA0bs+38L6sBJsP0AhjoMeKT9ioY6EGw6rQ5lnRtBLdMKafaXAVmalpkbXAkxLTxe0kWewGKQXORiwEcqhmBxLDoftYdPKFynStlix5qxPGBHngYMkm5dDEkeiWvRt54zcJNu3A5VX7XG0oV047bqrcpA2My0KKuzz7fMh6LeD1zuHYOUbS6LgV/anJNtk+iKWjjQufBrh9vGQD7fNrKvX7pXjB8+4vMHQ0FnfT5KTR8MGU3WDuinMhCyPruWa3TuhNgBvXy4iAjWR0D/YAgsS11PaWewSGt0LbFpA53E7UNOZaAale2lelKQXnqotG7nml56aHi83PdMLz30WFu5W+53DNLC0jLfuKG+xopZKMraAYykxiOWau0QyXLpeB+mRop1omc8LQDfoSC9tLkOK9ik9PtmmMpAOZQPjOHB0DAGmpYhrBUz0tMyHLWgd/8Rbj8YMmbLNsOrFa2JNZ8zRKwK2Azy0gHjOGco817J+NcZIl0gZ2DY7oKhf+dLl4YZvwsGDssuGQjRvWAo6KxfMOSjaAhDOmkNZYgnJaAM3K14yUBgjjNkhh4vGAZ7987Q2aucF3XIJyUghePtDiu8ZfDKaz5WcdZzZd97qkeWyz0k/4vKOOfTsWo1fsK0zjYoXRkOyji9esY5Iq6xbZycEheYbStqDFQRPq2hb2e3Dp6A9OAMxL23cyIMnRXZUBg7db5xQwOO1Nhkdc2xp4pQ/HZ0pRGknNxQqRRNhb9D06xl4lK8HaFIr0zi79A0kXpoPppWzbZLDQ7Bq7S/BP4OVTPgcfIVtQLEQ0PaLKr54sFOW9YyHkLLrFUt8RBaWnVRbNjUshikSi1WhB6n1TpEzrFvVC8rAypjaxyIB8MerfM2YU5xMWhr4CEWtV6S3ffNsJ1+OJ5DMA1k3tVx9EjB2oe50GYx6DtwKc8uDRIYG/PZw5x7zpUteilIn9yPPayuDSspxtDM8UADuuFiKZDEyzlMb3dUqsMwlsYQvBfYYrHjqKrlK/aTLHqNcdEdHkWTP5XfN1uDEYIlO6khDUP8fZOGeoxLjKjp4oLqfQQFbzImlha9FESx2uo2HSFjNUcfWhnEHmTvep5cY9ab5hsTyttOBuqoEuon6UXTAAktfi/WcI/BVHfbh67gBixFRyOi360BK6I/0ePFaJlDglhH11BY1K2hk/HRDW7qeVKM06zgNaLDtXPu+vzk7DfTnxHlZ7dT6POQPm/1DvE90YP8NJPPiLm8XSeh70v2q13IG8l/S4oFR8SOW7QBIUwfNH8UMZNSpw3MYHpraODnqWZ/+XwWfVJ5oPOvTVOpEUtoa9OG14iRYq02EAXlpxa/v/j7WWHyw/Pb6KPD+VhD8OH8Hw7qX6Z3+aciuGlxANMPG1jC9F39zwN9U3vK8l+sgexAX77vfhUr9znQeyDG9NEGzDB90IEfTJ+n+mNH+mD6lmqEL+wR0vtAJpTnXfD7PfclG0bC9zFXBWH4vmdruGR9suiDyRvRZ00PsX77ADif7C8VsictCDrQR03fRkyrZOtlOdB7hI306UKeD/Qmn0g/bAAS+jN7gNn3+D/J6tF5/svFQDLu/2g28AnL6Lz9g/29VDVejhhPpQv7S6n2lA0f5N/PHr/g+SctNo6I6vrAD042bfc9Cj3OVwr6voHnPQVNcXAiNVr+IWDJSbSG1+MoUHt+HBU5FD8JGF9/jDd7en4eZVqUnuY7RGsdCtwCOdS+B4wfN72eT+HzrPq9sNN1KKQZMB6MQ/VnOHVwTn1+pJ/qHx6exzqxDu87tSI8YP5t0+t54ve6oEd5sJL2g7yZPTrIs/nnx/sy9XxO99F+n7qSrXr3oE+GDtwKiOnv+2Kjiw/0dh/5eez3qSni6vlx1PHF+SRqC/9O+hQ0Jx6wBvfDXX6i517kqvKA/kDSNCnXovrAwoAV78nw6sAdtpbM4/vu/kngeVjm/7C8uX916NQ2/y1wN675h4E7X83/DNhF5P7tkb6p/4M91xf68EBv9ovoPb7gUegevxzpm95HpLf460g/7Xwo/rX48UBv8SmX83r8yzWeHl8f6C1+5+YQxwfYXjj+wP6z4xsB81OOnxzpTZ6J3vGfA73hSwd6w68O9IaPHegNfzvQG753oDf88EBv+OSB3vDPA/2F/0b0jt+yfDo+fKA3/Jnvi+PbB3rDz/m+Oz7P+sfx/wO95ReO9OaP4fNbfoT1ledfDt/L8jsH+bH8EdN7fupAb/mvA73l1w70lr/jcsl24e9RfnnnH02fUH6wun2nVRXNuogC1p+07vqT4sE2tLotYKdim9qDx/Fgs10VAWvhug0wZvx/59+/B9/uSeMXxjMXveG3VH/VL/BDwh+6zQiKXH9SPJ9F9T+9eH4Q6yVMPnmKUm8azyY+/67z5hJ2le6+Pyn9xXinW8l24nbjYBXbiJ+PqPY9Yz3GsMFXmecJWtttxpaNPVZO67US95RLpzFPZxrFBlTjoK9hFb/cqDbMP698PmZPG+Lze6CcNJHh/Og9T0764FBfDVtQ03kugeGlHe/XmIoP8PKeRa9N1VyWHmyYFuKxu4JVph5g/D5dnx/aD4IVYAXud/YKmsDdBG4yIs6U/Zg898SARelRZxjEhFZm2tqKxUBuza7Pln8hc3d+sjwnF1LuGvOhDNhokhXpizyiY9fJW9k7NssUyzU3HqtQrLihc/NYsezl4CbvauZ4cIeQ1V9Gnma0GGQ4UeIK8Nk0Q5cC94I1TSntmsdD37nUhCZMQu02cmn4yXwfuvWN8BqR3b9j7TjYEGo92x+TDt8xCJCReCjObouSdpzDxI2hu5gS73qa05bd8ESm3c8m73DQ9tZcvAcMH1odxT06NubKFc2H8RbTNpzwBpvFIBZ9MRxaf9UFy4ipzqlXNBcswt4MUkReT83FEpXuZsoDgzwS+z1z6mD8zI0RMdhUnEPP6RUHt7VecXDn7AXHoTn3mgNLFC44uMX4ioO7mK84uDHhioNDgSsObve+5sD1Pxcc3LR+xcF98Vcc3NJ3xcHd/dccpEUuOA4zCq44jmMQpNml8rbIzSDRVj51ootN2sMiDo8k71Cx4GrrQtno0k66UDzZ2rHE0g1AHWyIp/Yg1HEcFiFB70RUz1vX29FMSpjZIuZlp+VB9+IP/hckcdcyG7GhyFIrvJrAJ8ZUbgYe6hvsMTn8SAKG7BmU3FguaOke9cP/gsDbe5gQv7TOBprcedv1WDsj3NNW2PbIpr7bzgrG4KZhyj3zFe0KKnceS74DhFfx3ms3iKGpu7KHa/H4LlEz/TByyQonej/16zdjwIC52XcYPL/CArXOU2Snbfs97OrYY9Rev8M49OsbfDd4EcAOZwXPiqyXqgLkI/E0Ll+MwdvYZ9Ue63EYtGCY6GLAsVFFP9zgrV970qEwHAbxZBv6Vxn3M3hn8OK7vetAGrM7G3ZbDbh7tbnBX6CRMdibCYrWjMmeQND49wMufYemigWagduVLYafXF+5GHTlQ8ShHd7APjnjsr6rhOQzYdS1W9KFgXuc99jOrAxURDV8EUDBDzd81UDhMQXJXpoHXgzfaMJj1PZQTZ9ITJlEC/pnRWXchzHwLsveFbiY7C9129a1bRKPkhYlMDma68XWJXTsn9r94DZwm25cT1qQtP0b7vAW6HxPiKQUZzDh45UP7WqDA7mhy4fUOz0QBPMu7O0rcxu2zm0eOOqnVRtxz4tCl/OvSoA3OKx4ZPgQfSqdsF3ac3IvfLjar0DNzEO3G5/WJdj00smB345t7ZFwP6H5GnNiwUW1NMxkyLbaHPMnIOKaI9qc/okoUL3al0BR096MYedKAUSxiaqTw6zSNZCbPCvUCwEPiy6KpYYO0rfhOlsSQVqg5AsG0vclXTwS5WGKf+nDHhcrp5iHfazTNpQMLhi2gpDJGzJzv1jAg1uHrMRg8gyi7A4TA0zZ0oyTXeNcbFlH5zJv2wM8ee90tjrdw96KbN765Pg4B/OwGurK5A4Tj5xMU2szJ89RS1aMvT0s7p6V6qXJYZbvQ/1IAL9jELxo7yqDY03VrGLl/YO2gve0b63YYrDDRjerMTrtjLMtznszBm/W05fOWAmw93T7Zj3qa0mKAc+Emu9jjtITA24mj6YEeFbortyTDxf5w0UdwToZGdy1jbZDkab7JJuYN7nc9KP76IkBT8kNCi/riJaAGLzBKk6NOPaCEMoFWQv04JqPaJUAB2Aj2hbicUitdg13R+e2YMNP96A7SpnZnLHB5Q/RZoXudSD0L1TVfBtXoO/g2z0K9v7FbCtNMhZYLAa504OrQ2O6v+IT9kjrQGKylSaR+1+jSWvkBuqo6n4cOpaDJlH6RHRzF/QVZcBZoaq8d5Evgf16Rr0z+KNY6C5SRvpouQTSGFZr1Hn0b9er0zPXzF9t6YDzbCp0nQ1Ju9jRgevuFIzu3HNadYRDm6gfbeRbmwiXVDVrbaBZs1WRrXPMbalT3kptO4Aay1vRlohWUR6KlSRX7Ikuagwaz+QsmjD5WCb4hl5GFOxMMXxfGwnZElqCom78osfIQlGbFjFzne08ecZCtjR0QCtgJfl1Yoor246QgfKZFbqovFcxq79SOTGZdWJ87eyNW1HJIU6zig9elpysfqPyOnMFqWvBlIrlCj6aDt/RJ6XHqNFWuiR0nWzbbuUUqa1K34VG5FNrknfR4wwrvb+F99qaT1MGwoNJPZQyMDsaNcdWOoZmUe1R4S3SUYHpwhs5LXVUGp5PVHu36CknYu0HpfJMEnURFz1l16ylu3B8HzWbXXg2fFTQpGSE+KJWLZSMUaiBlCWxW6/6cOOi5NWrfS/cQxdshDb3lwT1Jwv3/FoMveipOMDyV5nXTAe175nT6sFGYg/MwAXVD4ue5N/ii72EHc/TC5Npz6rTN/QHrKU+N4xfgsrPLt5G+ZFKvMz+XlBwOBcseAkKz2UGz2xE3KKnCpxgm38SZgKtRSzzTMugCM/eaIP6WVs9eJe2jdw79OiZ/twRHP6++Cc7wkJ9JXWTHxHKO/sl9IXhJu0VSCf/R/zzlFG/JZXnD3D1nb/RlB5nNmrub58Y+ktSS/uBe77z3+T3A97fpPjG1sDo74k/kALqW2/l4yx1UjwhTkyLWLwQeStiVv3wMQTxXXxk9HR/sy4Ljx39E+8r7Ggfi+1YaWh/iyXMG+IDxUYIVPTPi2ZDFj3Zl6r2NDIe5SPPC6aYqo2Ez5jTrVoZFXlfZLPnT1hU1GwFQUJ5Nnws8pqrdrEGiOxv13gq8oxWKxqJAZswuhXK8EgDyyDyhAKV5oErjGzeKvt6ht2OAzQs/Yady8BtETUPBw0aWZ96kWx18B3KfYe1a+TOaRsbnlRP2QLxrA6BnWU9C6dgskUWaNhj0b7ejIZx0Yvnk9kxqT5sg4ZNxmott9xf6K3SeNG3XdBh2zjctPsyFgzcL4bZ4/NYwScP14nDhzdjoDx8+N9hOLFY3uOwXhvOhIH4xfAhlM+plv1Ib8ODybDH6cMXsWd2quXi4aaLvuj5kKGOtkKVh6HGeTFMms/f6TkXb8MRD8OSfbgjDyP34W2H82f69R+///Dt5z//8NMvv/76x7evX/75+fn///Tl6+d/fP3yr99+fPzVHz//8Pvn9af/BQ==);lineShape=1;" vertex="1" parent="1">
                    <mxGeometry x="251.04321627603213" y="13.268505797204853" width="278.1725178621879" height="369.16279243733356" as="geometry"/>
                </mxCell>
            </root>
        </mxGraphModel>
    </diagram>
</mxfile>